<?xml version="1.0" encoding="utf-8"?>
<!-- Generator: Adobe Illustrator 22.1.0, SVG Export Plug-In . SVG Version: 6.00 Build 0)  -->
<svg version="1.1" id="Layer_1" xmlns="http://www.w3.org/2000/svg" xmlns:xlink="http://www.w3.org/1999/xlink" x="0px" y="0px"
	 viewBox="0 0 2500 2310" style="enable-background:new 0 0 2500 2310;" xml:space="preserve">
<style type="text/css">
	.st0{fill:url(#Fill-1_1_);}
	.st1{fill:url(#Fill-3_1_);}
	.st2{fill:url(#Fill-6_1_);}
</style>
<title>Tencent video</title>
<g id="Page-1">
	<g id="Tencent-video" transform="translate(1 10)">
		<linearGradient id="Fill-1_1_" gradientUnits="userSpaceOnUse" x1="753.5134" y1="1145" x2="1385.5049" y2="1145">
			<stop  offset="0" style="stop-color:#82E51A"/>
			<stop  offset="0.2296" style="stop-color:#7FE41A"/>
			<stop  offset="0.3875" style="stop-color:#76DF1A"/>
			<stop  offset="0.5238" style="stop-color:#67D81A"/>
			<stop  offset="0.6479" style="stop-color:#51CD1A"/>
			<stop  offset="0.7626" style="stop-color:#35C01A"/>
			<stop  offset="0.8308" style="stop-color:#21B61A"/>
			<stop  offset="0.9769" style="stop-color:#21F01A"/>
		</linearGradient>
		<path id="Fill-1" class="st0" d="M1338.3,1058.7l-471-360.1c-62.8-47.1-113.8-21.6-113.8,56.9v779c0,78.5,51,104,113.8,56.9
			l471.9-359.1C1401.1,1184.2,1401.1,1105.8,1338.3,1058.7"/>
		<g id="Group-5" transform="translate(47.723 .138)">
			<linearGradient id="Fill-3_1_" gradientUnits="userSpaceOnUse" x1="420.498" y1="1144.8412" x2="2451.3215" y2="1144.8412">
				<stop  offset="0" style="stop-color:#82E51A"/>
				<stop  offset="0.2296" style="stop-color:#7FE41A"/>
				<stop  offset="0.3875" style="stop-color:#76DF1A"/>
				<stop  offset="0.5238" style="stop-color:#67D81A"/>
				<stop  offset="0.6479" style="stop-color:#51CD1A"/>
				<stop  offset="0.7626" style="stop-color:#35C01A"/>
				<stop  offset="0.8308" style="stop-color:#21B61A"/>
				<stop  offset="0.9769" style="stop-color:#21F01A"/>
			</linearGradient>
			<path id="Fill-3" class="st1" d="M2352.4,905.8C1864.8,436.8,1232.9,152.3,848.3,10C663.8-58.7,461.7,57.1,427.4,251.4
				c-2,9.8-2.9,19.6-4.9,29.4c355.2,109.9,928.2,326.7,1371.7,680.9c124.6,99.1,120.7,264.9-8.8,359.1
				c-251.2,181.5-715.3,471-1364.8,687.8c1,8.8,2.9,17.7,3.9,26.5c33.4,199.2,242.3,316.9,428.8,241.4
				c709.4-284.5,1215.7-664.2,1489.4-902.7C2483.9,1252.2,2487.8,1035.3,2352.4,905.8"/>
		</g>
		<linearGradient id="Fill-6_1_" gradientUnits="userSpaceOnUse" x1="-1.0258" y1="1145.3475" x2="469.9576" y2="1145.3475">
			<stop  offset="0" style="stop-color:#82E51A"/>
			<stop  offset="0.2296" style="stop-color:#7FE41A"/>
			<stop  offset="0.3875" style="stop-color:#76DF1A"/>
			<stop  offset="0.5238" style="stop-color:#67D81A"/>
			<stop  offset="0.6479" style="stop-color:#51CD1A"/>
			<stop  offset="0.7626" style="stop-color:#35C01A"/>
			<stop  offset="0.8308" style="stop-color:#21B61A"/>
			<stop  offset="0.9769" style="stop-color:#21F01A"/>
		</linearGradient>
		<path id="Fill-6" class="st2" d="M470,280.6c-3.9-1-8.8-2.9-12.8-3.9C287.5,224.7,101,313,69.6,461.1
			C-51,1028.2,6.8,1530.6,66.7,1826.9c30.4,152.1,222.7,242.3,394.4,184.5c2-1,3.9-1,5.9-2C405.2,1623.8,349.3,993.9,470,280.6"/>
	</g>
</g>
</svg>
